<?xml version="1.0" standalone="no"?>
<!DOCTYPE svg PUBLIC "-//W3C//DTD SVG 20010904//EN"
 "http://www.w3.org/TR/2001/REC-SVG-20010904/DTD/svg10.dtd">
<svg version="1.0" xmlns="http://www.w3.org/2000/svg"
 width="512.000000pt" height="512.000000pt" viewBox="0 0 512.000000 512.000000"
 preserveAspectRatio="xMidYMid meet">
<metadata>
Created by potrace 1.11, written by Peter Selinger 2001-2013
</metadata>
<g transform="translate(0.000000,512.000000) scale(0.100000,-0.100000)"
fill="#000000" stroke="none">
<path d="M2526 4785 c-38 -71 -156 -162 -243 -189 -20 -6 -23 -4 -23 19 0 28
23 79 48 108 22 25 4 21 -90 -19 -149 -64 -267 -140 -320 -208 -33 -42 -78
-124 -78 -142 0 -7 -25 -30 -56 -49 -235 -151 -355 -462 -315 -815 17 -142 89
-462 163 -728 16 -56 44 -54 72 3 17 34 21 72 27 255 9 257 21 364 54 496 37
147 74 215 169 310 156 155 301 193 743 194 168 0 199 3 247 20 52 20 116 76
156 138 14 21 15 7 16 -150 1 -157 4 -181 28 -263 36 -121 93 -234 165 -329
55 -73 60 -85 67 -145 4 -36 4 -138 1 -226 -4 -88 -2 -189 3 -224 8 -61 32
-110 57 -118 11 -4 78 188 117 338 80 309 103 631 58 812 -57 231 -182 393
-367 479 -64 29 -74 37 -84 69 -34 111 -156 236 -296 304 -75 37 -253 95 -290
95 -6 0 -19 -16 -29 -35z"/>
<path d="M3094 1797 c-33 -34 -79 -75 -102 -91 -22 -16 -39 -32 -37 -36 3 -4
-1 -7 -8 -7 -6 1 -51 -18 -98 -41 -126 -61 -198 -75 -344 -68 -66 3 -145 12
-175 19 -115 29 -243 105 -348 208 -53 52 -61 57 -44 29 105 -173 271 -322
461 -416 219 -108 497 -139 719 -80 61 17 64 10 26 -46 -30 -43 -116 -109
-252 -193 -198 -123 -310 -264 -346 -437 -12 -57 -14 -60 -20 -33 -56 246
-139 345 -443 524 -92 54 -162 116 -179 158 -10 23 -14 83 -14 213 0 99 -2
180 -6 180 -3 0 -37 -24 -77 -53 -82 -61 -244 -223 -312 -313 l-47 -61 -111
-28 c-240 -60 -534 -168 -743 -273 -304 -153 -472 -308 -510 -470 -22 -95 -28
-240 -14 -366 l12 -116 2488 0 2488 0 7 115 c8 132 -6 281 -34 356 -102 268
-521 514 -1241 728 l-175 53 -40 55 c-60 84 -241 263 -320 318 -97 67 -96 65
-89 157 4 44 3 78 -2 78 -5 -1 -36 -29 -70 -63z"/>
</g>
</svg>
