<?xml version="1.0" standalone="no"?>
<!DOCTYPE svg PUBLIC "-//W3C//DTD SVG 20010904//EN"
 "http://www.w3.org/TR/2001/REC-SVG-20010904/DTD/svg10.dtd">
<svg version="1.0" xmlns="http://www.w3.org/2000/svg"
 width="700.000000pt" height="700.000000pt" viewBox="0 0 700.000000 700.000000"
 preserveAspectRatio="xMidYMid meet">
<metadata>
Created by potrace 1.11, written by Peter Selinger 2001-2013
</metadata>
<g transform="translate(0.000000,700.000000) scale(0.100000,-0.100000)"
fill="#000000" stroke="none">
<path d="M3369 6596 c-2 -2 -24 -7 -48 -10 -74 -10 -161 -38 -154 -49 3 -6 1
-7 -5 -3 -18 11 -135 -52 -234 -127 -51 -38 -124 -90 -163 -115 -109 -70 -192
-161 -248 -272 -45 -87 -54 -99 -115 -140 -270 -185 -427 -518 -430 -914 0
-61 3 -147 9 -191 9 -77 65 -371 93 -487 l13 -56 -43 -7 c-60 -9 -101 -58
-120 -143 -20 -89 -24 -208 -10 -268 3 -12 8 -39 12 -60 12 -84 51 -187 106
-284 68 -119 135 -175 212 -176 46 0 50 -3 59 -30 20 -64 91 -260 102 -281 7
-12 16 -19 20 -15 5 4 5 2 2 -4 -10 -17 13 -75 26 -67 5 3 7 2 4 -4 -6 -9 47
-131 62 -143 25 -21 60 -111 61 -160 5 -149 -1 -300 -11 -300 -47 0 -407 -339
-528 -496 l-62 -82 -72 -17 c-306 -72 -725 -218 -997 -347 -58 -28 -118 -57
-135 -64 -103 -49 -332 -197 -409 -265 -79 -70 -90 -81 -138 -141 -77 -95
-111 -182 -134 -338 -7 -51 -7 -313 0 -375 2 -22 8 -68 11 -102 l8 -63 3402 0
3402 0 4 73 c13 267 -1 452 -45 572 -60 166 -235 345 -489 498 -131 80 -312
173 -432 222 -49 20 -103 43 -120 50 -107 48 -424 155 -737 250 -153 47 -157
49 -187 90 -44 62 -124 139 -233 226 -93 74 -281 213 -316 234 -19 11 -19 23
-11 345 2 109 7 152 19 175 102 190 166 338 153 358 -3 5 -2 7 4 4 5 -3 22 32
37 78 19 61 31 83 41 79 34 -13 128 50 180 121 23 32 79 133 88 161 28 83 35
109 31 116 -3 4 -1 8 5 8 8 0 13 17 27 105 13 83 14 135 2 135 -10 0 -10 2 1
9 9 6 11 18 7 35 -3 14 -9 47 -12 73 -8 69 -63 163 -95 163 -7 0 -8 8 -4 18 5
14 16 62 41 177 8 38 24 130 29 170 3 22 7 49 10 60 2 11 6 52 10 90 3 39 8
85 11 103 7 53 7 271 -1 347 -14 149 -81 355 -151 466 -89 143 -207 252 -354
328 -97 50 -108 60 -156 156 -78 154 -211 276 -435 399 -71 38 -208 91 -216
82 -3 -3 -15 0 -26 6 -18 9 -220 22 -228 14z m-469 -1350 c0 -2 -8 -10 -17
-17 -16 -13 -17 -12 -4 4 13 16 21 21 21 13z"/>
</g>
</svg>
