<?xml version="1.0" encoding="UTF-8" standalone="no"?>
<svg
   xmlns:dc="http://purl.org/dc/elements/1.1/"
   xmlns:cc="http://creativecommons.org/ns#"
   xmlns:rdf="http://www.w3.org/1999/02/22-rdf-syntax-ns#"
   xmlns:svg="http://www.w3.org/2000/svg"
   xmlns="http://www.w3.org/2000/svg"
   xmlns:sodipodi="http://sodipodi.sourceforge.net/DTD/sodipodi-0.dtd"
   xmlns:inkscape="http://www.inkscape.org/namespaces/inkscape"
   version="1.0"
   width="512.000000pt"
   height="512.000000pt"
   viewBox="0 0 512.000000 512.000000"
   preserveAspectRatio="xMidYMid meet"
   id="svg10"
   sodipodi:docname="safari-pinned-tab.svg"
   inkscape:version="0.92.4 (5da689c313, 2019-01-14)">
  <defs
     id="defs14" />
  <sodipodi:namedview
     pagecolor="#ffffff"
     bordercolor="#666666"
     borderopacity="1"
     objecttolerance="10"
     gridtolerance="10"
     guidetolerance="10"
     inkscape:pageopacity="0"
     inkscape:pageshadow="2"
     inkscape:window-width="1559"
     inkscape:window-height="869"
     id="namedview12"
     showgrid="false"
     inkscape:zoom="0.69140625"
     inkscape:cx="557.72164"
     inkscape:cy="195.82169"
     inkscape:window-x="0"
     inkscape:window-y="0"
     inkscape:window-maximized="0"
     inkscape:current-layer="svg10" />
  <metadata
     id="metadata2">
Created by potrace 1.11, written by Peter Selinger 2001-2013
<rdf:RDF>
  <cc:Work
     rdf:about="">
    <dc:format>image/svg+xml</dc:format>
    <dc:type
       rdf:resource="http://purl.org/dc/dcmitype/StillImage" />
  </cc:Work>
</rdf:RDF>
</metadata>
  <rect
     style="opacity:0.953;fill:#ffffff;fill-opacity:1;stroke:none;stroke-width:0;stroke-miterlimit:4;stroke-dasharray:none;stroke-opacity:1"
     id="rect4563"
     width="511.99997"
     height="512.13556"
     x="0"
     y="-2.7015014e-07" />
  <rect
     style="opacity:0.953;fill:#ececec;fill-opacity:1;stroke:none;stroke-width:0;stroke-miterlimit:4;stroke-dasharray:none;stroke-opacity:1"
     id="rect4546"
     width="129.08475"
     height="184.40677"
     x="188.74574"
     y="288.54236" />
  <ellipse
     style="opacity:0.953;fill:#ececec;fill-opacity:1;stroke:none;stroke-width:0;stroke-miterlimit:4;stroke-dasharray:none;stroke-opacity:1"
     id="path4529"
     cx="94.332672"
     cy="268.36157"
     rx="16.271187"
     ry="35.254238"
     transform="rotate(-14.201616)" />
  <ellipse
     style="opacity:0.953;fill:#ececec;fill-opacity:1;stroke:none;stroke-width:0;stroke-miterlimit:4;stroke-dasharray:none;stroke-opacity:1"
     id="path4529-7"
     cx="-392.16916"
     cy="148.04044"
     rx="16.271187"
     ry="35.254238"
     transform="matrix(-0.96943843,-0.24533473,-0.24533473,0.96943843,0,0)" />
  <ellipse
     style="opacity:0.953;fill:#ececec;fill-opacity:1;stroke:none;stroke-width:0;stroke-miterlimit:4;stroke-dasharray:none;stroke-opacity:1"
     id="path823"
     cx="252.2034"
     cy="195.25424"
     rx="94.915253"
     ry="165.96609" />
  <path
     inkscape:connector-curvature="0"
     style="fill:#999999;stroke:none;stroke-width:0.1"
     id="path4"
     d="m 252.6,33.5 c -3.8,7.1 -15.6,16.2 -24.3,18.9 -2,0.6 -2.3,0.4 -2.3,-1.9 0,-2.8 2.3,-7.9 4.8,-10.8 2.2,-2.5 0.4,-2.1 -9,1.9 -14.9,6.4 -26.7,14 -32,20.8 -3.3,4.2 -7.8,12.4 -7.8,14.2 0,0.7 -2.5,3 -5.6,4.9 -23.5,15.1 -35.5,46.2 -31.5,81.5 1.7,14.2 8.9,46.2 16.3,72.8 1.6,5.6 4.4,5.4 7.2,-0.3 1.7,-3.4 2.1,-7.2 2.7,-25.5 0.9,-25.7 2.1,-36.4 5.4,-49.6 3.7,-14.7 7.4,-21.5 16.9,-31 15.6,-15.5 30.1,-19.3 74.3,-19.4 16.8,0 19.9,-0.3 24.7,-2 5.2,-2 11.6,-7.6 15.6,-13.8 1.4,-2.1 1.5,-0.7 1.6,15 0.1,15.7 0.4,18.1 2.8,26.3 3.6,12.1 9.3,23.4 16.5,32.9 5.5,7.3 6,8.5 6.7,14.5 0.4,3.6 0.4,13.8 0.1,22.6 -0.4,8.8 -0.2,18.9 0.3,22.4 0.8,6.1 3.2,11 5.7,11.8 1.1,0.4 7.8,-18.8 11.7,-33.8 8,-30.9 10.3,-63.1 5.8,-81.2 C 353.5,101.6 341,85.4 322.5,76.8 316.1,73.9 315.1,73.1 314.1,69.9 310.7,58.8 298.5,46.3 284.5,39.5 277,35.8 259.2,30 255.5,30 c -0.6,0 -1.9,1.6 -2.9,3.5 z" />
  <path
     inkscape:connector-curvature="0"
     style="fill:#b3b3b3;stroke:none;stroke-width:0.1"
     id="path6"
     d="m 314.4,385.2 c -3,4.3 -11.6,10.9 -25.2,19.3 -19.8,12.3 -31,26.4 -34.6,43.7 -1.2,5.7 -1.4,6 -2,3.3 -5.6,-24.6 -13.9,-34.5 -44.3,-52.4 -9.2,-5.4 -16.2,-11.6 -17.9,-15.8 -1,-2.3 -1.4,-8.3 -1.4,-21.3 0,-9.9 -0.2,-18 -0.6,-18 -0.3,0 -3.7,2.4 -7.7,5.3 -8.2,6.1 -24.4,22.3 -31.2,31.3 l -4.7,6.1 -11.1,2.8 c -24,6 -53.4,16.8 -74.3,27.3 -30.4,15.3 -47.2,30.8 -51,47 -2.2,9.5 -2.8,24 -1.4,36.6 L 8.2,512 H 257 505.8 l 0.7,-11.5 c 0.8,-13.2 -0.6,-28.1 -3.4,-35.6 C 492.9,438.1 451,413.5 379,392.1 l -17.5,-5.3 -4,-5.5 c -6,-8.4 -31.77031,-26.68352 -39.67031,-32.18352 C 317.4578,359.4795 317.34529,380.68834 314.4,385.2 Z"
     sodipodi:nodetypes="ccccccssccccccccccccccccc" />
  <path
     inkscape:connector-curvature="0"
     style="fill:#cccccc;stroke:none;stroke-width:0.1"
     id="path6-0"
     d="m 311.33466,321.3198 c -3.09976,3.58349 -7.45729,7.94033 -9.66183,9.66948 -2.10472,1.72343 -3.71025,3.4182 -3.48766,3.80609 0.32242,0.38215 -0.0597,0.70458 -0.75857,0.74468 -0.60475,-0.0654 -4.98849,2.08926 -9.54899,4.65478 -12.22979,6.81193 -19.33775,8.62217 -33.95387,8.75986 -6.60634,0.0786 -14.54492,-0.36722 -17.5801,-0.89418 -11.64728,-2.23631 -24.8617,-9.09042 -35.93463,-18.77188 -5.58924,-4.88778 -6.41657,-5.34112 -4.55893,-2.64313 11.47399,16.66996 28.90045,30.59435 48.40784,38.89025 22.48283,9.52745 50.41479,11.02949 72.24026,3.86718 1.464,-54.77386 2.1106,-46.99814 2.1106,-46.99814 0.14723,-4.41569 -0.14741,-7.80437 -0.6466,-7.77572 -0.49344,0.12848 -3.42792,3.1015 -6.62752,6.69073 z"
     sodipodi:nodetypes="cccccccccccccc" />
</svg>
